<svg width="77" height="73" viewBox="0 0 77 73" fill="none" xmlns="http://www.w3.org/2000/svg">
<path d="M32.3617 38.8284C32.5837 39.4317 29.2632 44.5155 27.7939 47.5573C26.3245 50.5991 23.5058 57.5219 23.5058 57.5219L17.5044 56.7787C17.5044 56.7787 18.8197 51.7717 20.6052 47.0559C22.3906 42.3401 24.6262 38.5115 25.3089 38.0287C25.9285 37.5906 27.342 37.4963 28.5852 37.6361C29.8284 37.776 32.1393 38.2236 32.3617 38.8284Z" fill="#EF6EE3" stroke="black" stroke-width="2"/>
<path d="M23.506 57.5218C23.8755 57.1602 21.921 53.2837 21.005 51.0153C20.0889 48.7469 18.0634 43.6111 18.0634 43.6111L11.7954 44.0235C11.7954 44.0235 13.7888 48.4132 14.6801 51.8452C15.5715 55.2772 15.5532 56.1463 16.1812 56.5837C16.751 56.9807 18.6266 58.4298 19.9917 58.5511C21.3567 58.6724 23.1357 57.8842 23.506 57.5218V57.5218Z" fill="#EF6EE3" stroke="black" stroke-width="2"/>
<path d="M48.8395 38.1662C48.6175 38.7696 51.938 43.8534 53.4073 46.8951C54.8767 49.9369 57.6954 56.8598 57.6954 56.8598L63.6968 56.1166C63.6968 56.1166 62.3814 51.1096 60.596 46.3938C58.8106 41.678 56.575 37.8494 55.8923 37.3666C55.2727 36.9285 53.8592 36.8342 52.616 36.974C51.3728 37.1138 49.0619 37.5615 48.8395 38.1662Z" fill="#EF6EE3" stroke="black" stroke-width="2"/>
<path d="M28.658 31.9338L26.2005 56.3011C26.2005 56.3011 25.8436 66.946 27.2714 68.6527C28.1744 69.7322 30.1865 71.0332 35.7788 71.662C41.3711 72.2908 44.159 71.9308 47.5583 71.4824C48.3848 71.3734 53.4114 70.1375 54.4798 68.038C55.6233 65.7909 54.8873 56.567 54.8873 56.567L52.6508 31.9571L28.658 31.9338Z" fill="#EF6EE3" stroke="black" stroke-width="2"/>
<path d="M30.4308 21.3385C30.4308 21.3385 30.837 20.0633 33.1161 19.7217" stroke="black" stroke-width="2"/>
<path d="M59.3013 14.3683C59.3013 14.3683 70.9945 9.31215 73.6761 17.1845C76.3578 25.0568 62.7921 24.9215 62.7921 24.9215L59.3013 14.3683Z" fill="#F06EE3" stroke="black" stroke-width="2"/>
<path d="M63.6036 16.5393C63.6036 16.5393 69.05 14.1843 70.2991 17.851C71.5481 21.5178 65.2295 21.4547 65.2295 21.4547L63.6036 16.5393Z" fill="#63432D" stroke="black" stroke-width="2"/>
<path d="M14.1467 22.8858C14.1467 22.8858 0.684057 22.5118 3.14609 30.425C5.60813 38.3382 17.5393 33.4573 17.5393 33.4573L14.1467 22.8858Z" fill="#F06EE3" stroke="black" stroke-width="2"/>
<path d="M11.6708 26.3187C11.6708 26.3187 5.40025 26.1445 6.54698 29.8303C7.69374 33.516 13.251 31.2427 13.251 31.2427L11.6708 26.3187Z" fill="#63432D" stroke="black" stroke-width="2"/>
<path opacity="0.997" d="M50.8219 11.3404L20.1824 17.0408C15.9858 17.8215 13.4206 21.0216 14.4529 24.1884L17.1346 32.4152C18.1669 35.582 22.4057 37.5163 26.6023 36.7355L57.2419 31.0351C61.4385 30.2544 64.0037 27.0543 62.9714 23.8875L60.2897 15.6607C59.2574 12.4939 55.0185 10.5597 50.8219 11.3404Z" fill="#F06EE3" stroke="black" stroke-width="2"/>
<path d="M27.898 19.1992C36.1472 19.7867 38.8975 19.18 45.1591 15.7917C51.2464 12.1515 56.8063 16.3176 56.7672 20.5638C56.5653 24.1979 56.4844 28.4744 51.5214 28.9291C42.5177 29.7541 42.2223 27.9124 30.9921 32.9447C24.6619 35.7812 21.3789 28.5465 20.7743 27.6524C17.8969 23.3971 19.6487 18.6116 27.898 19.1992Z" fill="#63432D" stroke="black" stroke-width="2"/>
<path opacity="0.997" d="M34.2461 27.6151C35.0136 27.4723 35.2579 26.1969 34.7917 24.7665C34.3255 23.3361 33.3254 22.2923 32.5579 22.4351C31.7904 22.5779 31.5461 23.8533 32.0123 25.2837C32.4785 26.7142 33.4785 27.758 34.2461 27.6151Z" fill="#160900" stroke="black" stroke-width="2"/>
<path opacity="0.997" d="M44.8662 25.6407C45.6337 25.4978 45.878 24.2225 45.4118 22.792C44.9456 21.3616 43.9455 20.3178 43.178 20.4606C42.4105 20.6035 42.1662 21.8788 42.6324 23.3093C43.0986 24.7397 44.0986 25.7835 44.8662 25.6407Z" fill="#160900" stroke="black" stroke-width="2"/>
<path d="M37.4335 25.5981C37.6312 24.8419 39.9548 24.3734 40.7835 24.9748C41.4112 25.4303 40.2515 26.4439 39.6682 26.6047C39.1275 26.7538 37.2358 26.3542 37.4335 25.5981Z" fill="#502D16" stroke="black" stroke-width="2"/>
<path d="M28.8107 21.6776C28.8107 21.6776 29.2169 20.4024 31.496 20.0609" stroke="black" stroke-width="2"/>
<path d="M41.6871 20.2969C41.6871 20.2969 42.9401 19.3881 45.1028 20.0277" stroke="black" stroke-width="2"/>
<path d="M47.7254 27.777C47.7254 27.777 48.2654 25.9772 51.2949 25.4951" stroke="black" stroke-width="2"/>
<path opacity="0.997" d="M47.3108 42.1796C47.3108 39.4433 44.3727 37.2251 40.7483 37.2251C37.1239 37.2251 34.1858 39.4433 34.1858 42.1796V61.4895C34.1858 64.2258 37.1239 66.4441 40.7483 66.4441C44.3727 66.4441 47.3108 64.2258 47.3108 61.4895V42.1796Z" fill="#63432D" stroke="black" stroke-width="2"/>
<path d="M57.6948 56.8596C57.3254 56.498 59.2799 52.6215 60.1959 50.353C61.1119 48.0846 63.1375 42.9489 63.1375 42.9489L69.4055 43.3612C69.4055 43.3612 67.4121 47.751 66.5207 51.183C65.6294 54.615 65.6477 55.4841 65.0197 55.9215C64.4498 56.3184 62.5742 57.7675 61.2092 57.8888C59.8441 58.0101 58.0652 57.222 57.6948 56.8596V56.8596Z" fill="#EF6EE3" stroke="black" stroke-width="2"/>
<path d="M60.2344 39.7141V37.5004C61.1597 37.8045 62.61 37.4627 62.5824 36.4266C62.5824 35.4823 61.3114 34.9927 60.2344 35.2443V33.2227H62.9927C62.159 32.1324 63.0695 31.3516 64.4208 31.3516C66.0525 31.3516 66.497 32.2217 65.7316 33.2227H68.8421V35.3068C70.0538 35.0454 70.9557 35.2351 71.1384 36.4719C70.9698 37.6693 70.0377 37.7962 68.8421 37.5535V39.7212L60.2344 39.7141Z" fill="#098FC8" stroke="black" stroke-width="2"/>
<path d="M14.7473 32.7844L17.5392 33.4607C16.8731 34.033 16.861 35.18 18.1762 35.4767C19.3671 35.7652 20.3729 35.0011 20.3847 34.15L22.9344 34.7676L22.0917 36.7506C23.7215 36.4843 24.6389 37.4285 24.226 38.3999C23.7276 39.5728 22.2835 39.5755 21.255 38.7194L20.3047 40.9555L12.1085 38.9701L13.0431 36.7773C11.6035 37.1484 10.3402 36.3068 10.8332 35.2487C11.2892 34.1999 12.7037 33.8771 13.8637 34.8582L14.7473 32.7844Z" fill="#00FFFF" stroke="black" stroke-width="2"/>
<path d="M18.04 42.1428L18.4093 40.6272L16.6474 40.3445L16.3521 41.3575L18.04 42.1428Z" fill="#63432D" stroke="black"/>
<path d="M13.5483 45.2992L16.2637 44.6995C16.8903 44.2997 16.577 43.6222 16.577 43.6222C17.2931 43.3668 17.0842 42.7893 17.0842 42.7893C17.7407 42.7005 17.681 41.5899 17.681 41.5899L15.1745 40.0351C15.1745 40.0351 16.6665 40.968 18.4568 40.8792C20.2472 40.7903 19.4117 39.9907 19.4117 39.9907C19.4117 39.9907 17.1439 39.0134 16.1891 38.7913C15.2342 38.5692 14.6971 38.6581 14.6971 38.6581L11.7132 39.813C11.7132 39.813 10.2212 41.2345 11.1761 44.3441C12.131 47.4537 15.5923 46.9206 15.5923 46.9206C15.5923 46.9206 16.9052 46.8095 17.1588 44.1553C17.1588 44.1553 20.6202 42.7671 15.1745 40.0351" fill="#63432D"/>
<path d="M13.5483 45.2992L16.2637 44.6995C16.8903 44.2997 16.577 43.6222 16.577 43.6222C17.2931 43.3668 17.0842 42.7893 17.0842 42.7893C17.7407 42.7005 17.681 41.5899 17.681 41.5899L15.1745 40.0351C15.1745 40.0351 16.6665 40.968 18.4568 40.8792C20.2472 40.7903 19.4117 39.9907 19.4117 39.9907C19.4117 39.9907 17.1439 39.0134 16.1891 38.7913C15.2342 38.5692 14.6971 38.6581 14.6971 38.6581L11.7132 39.813C11.7132 39.813 10.2212 41.2345 11.1761 44.3441C12.131 47.4537 15.5923 46.9206 15.5923 46.9206C15.5923 46.9206 16.9052 46.8095 17.1588 44.1553C17.1588 44.1553 20.6202 42.7671 15.1745 40.0351" stroke="black"/>
<path d="M16.5771 43.6222C16.5771 43.6222 16.1593 43.3001 15.9653 43.3112C15.7714 43.3223 13.3992 43.6111 13.3992 43.6111" stroke="black"/>
<path d="M17.0842 42.7892L16.0398 41.8675C16.0398 41.8675 15.8459 41.7009 15.458 41.7453C15.0701 41.7897 13.3245 42.0341 13.3245 42.0341" stroke="black"/>
<path d="M15.1745 40.0352C14.6526 39.8085 14.1513 40.1646 13.5361 40.3265" stroke="black"/>
<path d="M62.5149 42.3024L62.1457 40.7869L63.9075 40.5042L64.2029 41.5172L62.5149 42.3024Z" fill="#63432D" stroke="black" stroke-width="2"/>
<path d="M67.0069 45.4589L64.2915 44.8591C63.6649 44.4593 63.9782 43.7819 63.9782 43.7819C63.2621 43.5265 63.4709 42.949 63.4709 42.949C62.8145 42.8601 62.8742 41.7496 62.8742 41.7496L65.3806 40.1948C65.3806 40.1948 63.8887 41.1277 62.0983 41.0388C60.308 40.95 61.1435 40.1504 61.1435 40.1504C61.1435 40.1504 63.4113 39.1731 64.3661 38.951C65.321 38.7289 65.8581 38.8177 65.8581 38.8177L68.842 39.9727C68.842 39.9727 70.3339 41.3942 69.3791 44.5038C68.4242 47.6133 64.9629 47.0803 64.9629 47.0803C64.9629 47.0803 63.65 46.9692 63.3963 44.315C63.3963 44.315 59.935 42.9268 65.3806 40.1948" fill="#63432D"/>
<path d="M67.0069 45.4589L64.2915 44.8591C63.6649 44.4593 63.9782 43.7819 63.9782 43.7819C63.2621 43.5265 63.4709 42.949 63.4709 42.949C62.8145 42.8601 62.8742 41.7496 62.8742 41.7496L65.3806 40.1948C65.3806 40.1948 63.8887 41.1277 62.0983 41.0388C60.308 40.95 61.1435 40.1504 61.1435 40.1504C61.1435 40.1504 63.4113 39.1731 64.3661 38.951C65.321 38.7289 65.8581 38.8177 65.8581 38.8177L68.842 39.9727C68.842 39.9727 70.3339 41.3942 69.3791 44.5038C68.4242 47.6133 64.9629 47.0803 64.9629 47.0803C64.9629 47.0803 63.65 46.9692 63.3963 44.315C63.3963 44.315 59.935 42.9268 65.3806 40.1948" stroke="black" stroke-width="2"/>
<path d="M63.9781 43.7819C63.9781 43.7819 64.3959 43.4599 64.5899 43.471C64.7838 43.4821 67.156 43.7708 67.156 43.7708" stroke="black" stroke-width="2"/>
<path d="M63.471 42.949L64.5154 42.0273C64.5154 42.0273 64.7093 41.8607 65.0972 41.9051C65.4851 41.9495 67.2307 42.1939 67.2307 42.1939" stroke="black" stroke-width="2"/>
<path d="M65.3807 40.1949C65.9026 39.9683 66.4039 40.3244 67.019 40.4863" stroke="black" stroke-width="2"/>
<path d="M34.8106 3.32217C34.2093 3.26117 33.6608 2.92192 34.3136 2.26577C35.102 1.47334 37.3335 0.20013 39.7725 1.68665C42.6815 3.4597 38.1392 6.98189 38.0237 7.33478C37.8474 7.87341 37.9908 8.65969 37.7177 8.98812C37.4616 9.29606 36.4778 9.26278 36.3146 8.93271C36.0447 8.38693 36.366 7.27177 36.366 7.27177C36.366 7.27177 36.4587 6.8815 36.9665 6.48462C37.4743 6.08775 38.8295 4.63931 39.0795 4.11824C39.3393 3.57665 39.4055 2.53323 37.9866 2.19171C36.423 1.81533 35.4012 3.38209 34.8106 3.32217L34.8106 3.32217Z" fill="#1A1A1A" stroke="#1A1A1A"/>
<path opacity="0.997" d="M37.1032 10.9982C37.5775 10.9982 37.962 10.7079 37.962 10.3498C37.962 9.99171 37.5775 9.70142 37.1032 9.70142C36.6289 9.70142 36.2444 9.99171 36.2444 10.3498C36.2444 10.7079 36.6289 10.9982 37.1032 10.9982Z" fill="#1A1A1A" stroke="#1A1A1A"/>
<path d="M69.7059 27.5217C69.474 27.5888 69.1888 27.5481 69.2532 27.2158C69.3309 26.8146 69.8025 26.0272 71.0648 26.2003C72.5704 26.4067 71.8518 28.3437 71.9019 28.4875C71.9783 28.707 72.2339 28.9682 72.2209 29.1266C72.2088 29.275 71.8466 29.4086 71.7023 29.3142C71.4637 29.1581 71.2898 28.7101 71.2898 28.7101C71.2898 28.7101 71.2218 28.5562 71.3013 28.3386C71.3809 28.1209 71.4921 27.4002 71.4467 27.1761C71.3995 26.9432 71.1526 26.5586 70.554 26.6459C69.8944 26.742 69.9337 27.4559 69.7059 27.5217L69.7059 27.5217Z" fill="#1A1A1A" stroke="#1A1A1A"/>
<path opacity="0.997" d="M72.5214 29.9403C72.6918 29.8702 72.7547 29.709 72.6618 29.5804C72.569 29.4518 72.3555 29.4044 72.1851 29.4746C72.0146 29.5448 71.9518 29.7059 72.0446 29.8346C72.1375 29.9632 72.351 30.0105 72.5214 29.9403Z" fill="#1A1A1A" stroke="#1A1A1A"/>
<path d="M18.385 62.7882C18.1389 62.7633 17.9145 62.6244 18.1816 62.356C18.5042 62.0317 19.4173 61.5107 20.4153 62.119C21.6057 62.8445 19.747 64.2857 19.6998 64.4301C19.6276 64.6505 19.6863 64.9723 19.5745 65.1067C19.4698 65.2327 19.0672 65.2191 19.0004 65.084C18.89 64.8607 19.0214 64.4044 19.0214 64.4044C19.0214 64.4044 19.0594 64.2447 19.2672 64.0823C19.475 63.9199 20.0295 63.3272 20.1318 63.114C20.2381 62.8924 20.2652 62.4654 19.6846 62.3256C19.0448 62.1716 18.6266 62.8127 18.385 62.7882L18.385 62.7882Z" fill="#1A1A1A" stroke="#1A1A1A"/>
<path opacity="0.997" d="M19.3231 65.9292C19.5172 65.9292 19.6745 65.8104 19.6745 65.6639C19.6745 65.5173 19.5172 65.3986 19.3231 65.3986C19.129 65.3986 18.9717 65.5173 18.9717 65.6639C18.9717 65.8104 19.129 65.9292 19.3231 65.9292Z" fill="#1A1A1A" stroke="#1A1A1A"/>
<path d="M62.7024 62.172C62.4869 62.0787 62.3484 61.8862 62.73 61.7138C63.191 61.5056 64.2973 61.2835 64.9178 62.1312C65.658 63.1423 63.2158 63.9467 63.0998 64.0669C62.9228 64.2504 62.8164 64.565 62.6457 64.6576C62.4856 64.7444 62.1195 64.617 62.1251 64.4729C62.1344 64.2347 62.4843 63.8497 62.4843 63.8497C62.4843 63.8497 62.5993 63.7127 62.8729 63.6215C63.1466 63.5304 63.9565 63.1398 64.1579 62.9716C64.3671 62.7967 64.6056 62.4091 64.1376 62.1142C63.6218 61.7892 62.914 62.2636 62.7024 62.172L62.7024 62.172Z" fill="#1A1A1A" stroke="#1A1A1A"/>
<path opacity="0.997" d="M62.0016 65.3482C62.1813 65.4035 62.3864 65.3384 62.4596 65.2027C62.5328 65.0671 62.4464 64.9123 62.2667 64.8569C62.0869 64.8016 61.8818 64.8667 61.8086 65.0023C61.7354 65.138 61.8218 65.2928 62.0016 65.3482Z" fill="#1A1A1A" stroke="#1A1A1A"/>
<path d="M8.37598 17.2115C8.16052 17.1183 8.02196 16.9258 8.40362 16.7534C8.86456 16.5451 9.97084 16.3231 10.5914 17.1708C11.3316 18.1818 8.88934 18.9863 8.7734 19.1065C8.59644 19.29 8.48998 19.6046 8.31928 19.6971C8.15923 19.7839 7.79308 19.6566 7.79871 19.5125C7.80804 19.2742 8.15788 18.8892 8.15788 18.8892C8.15788 18.8892 8.27284 18.7522 8.54651 18.6611C8.82018 18.57 9.63013 18.1794 9.83144 18.0111C10.0407 17.8362 10.2792 17.4487 9.81115 17.1538C9.29536 16.8288 8.58759 17.3031 8.37597 17.2115L8.37598 17.2115Z" fill="#1A1A1A" stroke="#1A1A1A"/>
<path opacity="0.997" d="M7.67491 20.3875C7.85469 20.4428 8.05977 20.3777 8.13298 20.242C8.20618 20.1064 8.11979 19.9516 7.94002 19.8962C7.76024 19.8409 7.55516 19.906 7.48195 20.0416C7.40874 20.1773 7.49513 20.3321 7.67491 20.3875Z" fill="#1A1A1A" stroke="#1A1A1A"/>
</svg>
